HIERARCHY
ROOT Hips
{
	OFFSET 0.000000 0.000000 0.000000
	CHANNELS 6 Xposition Yposition Zposition Zrotation Yrotation Xrotation 
	JOINT LHipJoint
	{
		OFFSET 0.000000 0.000000 0.000000
		CHANNELS 3 Zrotation Yrotation Xrotation
		JOINT LeftUpLeg
		{
			OFFSET 1.363060 -1.794630 0.839290
			CHANNELS 3 Zrotation Yrotation Xrotation
			JOINT LeftLeg
			{
				OFFSET 2.448110 -6.726130 0.000000
				CHANNELS 3 Zrotation Yrotation Xrotation
				JOINT LeftFoot
				{
					OFFSET 2.562200 -7.039590 0.000000
					CHANNELS 3 Zrotation Yrotation Xrotation
					JOINT LeftToeBase
					{
						OFFSET 0.157640 -0.433110 2.322550
						CHANNELS 3 Zrotation Yrotation Xrotation
						End Site
						{
							OFFSET 0.000000 0.000000 0.000000
						}
					}
				}
			}
		}
	}
	JOINT RHipJoint
	{
		OFFSET 0.000000 0.000000 0.000000
		CHANNELS 3 Zrotation Yrotation Xrotation
		JOINT RightUpLeg
		{
			OFFSET -1.305520 -1.794630 0.839290
			CHANNELS 3 Zrotation Yrotation Xrotation
			JOINT RightLeg
			{
				OFFSET -2.542530 -6.985550 0.000000
				CHANNELS 3 Zrotation Yrotation Xrotation
				JOINT RightFoot
				{
					OFFSET -2.568260 -7.056230 0.000000
					CHANNELS 3 Zrotation Yrotation Xrotation
					JOINT RightToeBase
					{
						OFFSET -0.164730 -0.452590 2.363150
						CHANNELS 3 Zrotation Yrotation Xrotation
						End Site
						{
							OFFSET 0.000000 0.000000 0.000000
						}
					}
				}
			}
		}
	}
	JOINT LowerBack
	{
		OFFSET 0.000000 0.000000 0.000000
		CHANNELS 3 Zrotation Yrotation Xrotation
		JOINT Spine
		{
			OFFSET 0.028270 2.035590 -0.193380
			CHANNELS 3 Zrotation Yrotation Xrotation
			JOINT Spine1
			{
				OFFSET 0.056720 2.048850 -0.042750
				CHANNELS 3 Zrotation Yrotation Xrotation
				JOINT Neck
				{
					OFFSET 0.000000 0.000000 0.000000
					CHANNELS 3 Zrotation Yrotation Xrotation
					JOINT Neck1
					{
						OFFSET -0.054170 1.746240 0.172020
						CHANNELS 3 Zrotation Yrotation Xrotation
						JOINT Head
						{
							OFFSET 0.104070 1.761360 -0.123970
							CHANNELS 3 Zrotation Yrotation Xrotation
							End Site
							{
								OFFSET 0.000000 0.000000 0.000000
							}
						}
					}
				}
				JOINT LeftShoulder
				{
					OFFSET 0.000000 0.000000 0.000000
					CHANNELS 3 Zrotation Yrotation Xrotation
					JOINT LeftArm
					{
						OFFSET 3.362410 1.200890 -0.311210
						CHANNELS 3 Zrotation Yrotation Xrotation
						JOINT LeftForeArm
						{
							OFFSET 4.983000 -0.000000 -0.000000
							CHANNELS 3 Zrotation Yrotation Xrotation
							JOINT LeftHand
							{
								OFFSET 3.483560 -0.000000 -0.000000
								CHANNELS 3 Zrotation Yrotation Xrotation
								JOINT LeftFingerBase
								{
									OFFSET 0.000000 0.000000 0.000000
									CHANNELS 3 Zrotation Yrotation Xrotation
									JOINT LeftHandIndex1
									{
										OFFSET 0.715260 -0.000000 -0.000000
										CHANNELS 3 Zrotation Yrotation Xrotation
										End Site
										{
											OFFSET 0.000000 0.000000 0.000000
										}
									}
								}
								JOINT LThumb
								{
									OFFSET 0.000000 0.000000 0.000000
									CHANNELS 3 Zrotation Yrotation Xrotation
									End Site
									{
										OFFSET 0.000000 0.000000 0.000000
									}
								}
							}
						}
					}
				}
				JOINT RightShoulder
				{
					OFFSET 0.000000 0.000000 0.000000
					CHANNELS 3 Zrotation Yrotation Xrotation
					JOINT RightArm
					{
						OFFSET -3.136600 1.374050 -0.404650
						CHANNELS 3 Zrotation Yrotation Xrotation
						JOINT RightForeArm
						{
							OFFSET -5.241900 -0.000000 -0.000000
							CHANNELS 3 Zrotation Yrotation Xrotation
							JOINT RightHand
							{
								OFFSET -3.444170 -0.000000 -0.000000
								CHANNELS 3 Zrotation Yrotation Xrotation
								JOINT RightFingerBase
								{
									OFFSET 0.000000 0.000000 0.000000
									CHANNELS 3 Zrotation Yrotation Xrotation
									JOINT RightHandIndex1
									{
										OFFSET -0.622530 -0.000000 -0.000000
										CHANNELS 3 Zrotation Yrotation Xrotation
										End Site
										{
											OFFSET 0.000000 0.000000 0.000000
										}
									}
								}
								JOINT RThumb
								{
									OFFSET 0.000000 0.000000 0.000000
									CHANNELS 3 Zrotation Yrotation Xrotation
									End Site
									{
										OFFSET 0.000000 0.000000 0.000000
									}
								}
							}
						}
					}
				}
			}
		}
	}
}
MOTION
Frames: 11
Frame Time: 0.008333
1.503235 14.183141 0.927127 -3.732550 -27.975415 -7.748253 11.805549 28.868359 -5.096311 -25.596977 -17.920589 -21.760165 15.627065 8.147222 42.246704 -2.092661 -1.459361 -23.967826 0.000000 0.000000 0.000000 -16.962203 -22.761065 -0.447278 19.350667 4.635893 -0.661121 14.776065 -31.873145 46.827119 13.089626 -9.852956 -39.419923 0.000000 0.000000 0.000000 7.924443 0.316127 8.662959 0.912098 2.262497 -4.052960 -0.159678 -0.085244 -10.642454 -1.975333 1.334377 1.189847 0.000000 0.000000 0.000000 0.000000 0.000000 0.000000 8.942005 -5.144475 0.795964 -42.869053 -20.181722 -19.299348 -113.498169 -81.523859 -180.000000 0.000000 0.000000 0.000000 0.000000 0.000000 0.000000 0.000000 0.000000 0.000000 0.000000 0.000000 0.000000 -7.469631 -5.095817 -11.789786 98.287465 32.328590 55.110646 -124.857459 50.307316 0.000000 0.000000 0.000000 0.000000 0.000000 0.000000 0.000000 0.000000 0.000000 0.000000 0.000000 0.000000 0.000000 
1.513845 14.146430 0.992498 -3.880531 -28.002756 -7.764817 11.563224 28.889199 -5.160124 -25.684650 -18.238250 -21.962102 16.664328 7.465742 42.462381 -2.009808 -2.002898 -24.168191 0.000000 0.000000 0.000000 -17.044850 -22.758562 -0.267184 19.291291 4.872557 -0.706907 14.778498 -31.961803 47.231013 13.337460 -9.864848 -39.661786 0.000000 0.000000 0.000000 8.122732 0.276319 8.612496 0.936254 2.226252 -4.054689 0.029290 -0.146463 -10.640410 -1.952121 1.326706 1.136360 0.000000 0.000000 0.000000 0.000000 0.000000 0.000000 8.992121 -5.189706 0.738411 -42.639141 -19.905137 -19.732680 -113.990656 -81.167657 -180.000000 0.000000 0.000000 0.000000 0.000000 0.000000 0.000000 0.000000 0.000000 0.000000 0.000000 0.000000 0.000000 -7.361552 -5.125328 -11.663911 98.386736 32.504792 55.221295 -124.805185 50.370750 0.000000 0.000000 0.000000 0.000000 0.000000 0.000000 0.000000 0.000000 0.000000 0.000000 0.000000 0.000000 0.000000 
1.524554 14.112550 1.058450 -4.019630 -28.036885 -7.777774 11.345382 28.916506 -5.230622 -25.793275 -18.515733 -22.112197 17.655918 6.812462 42.618732 -1.919651 -2.539485 -24.404412 0.000000 0.000000 0.000000 -17.127128 -22.750431 -0.086016 19.221521 5.091759 -0.745634 14.800888 -32.027129 47.592846 13.552682 -9.849750 -39.872262 0.000000 0.000000 0.000000 8.303817 0.236560 8.569347 0.958950 2.190977 -4.055653 0.204833 -0.204194 -10.644786 -1.933013 1.318231 1.085921 0.000000 0.000000 0.000000 0.000000 0.000000 0.000000 9.038851 -5.231124 0.682255 -42.417256 -19.634895 -20.152274 -114.453410 -80.818851 -180.000000 0.000000 0.000000 0.000000 0.000000 0.000000 0.000000 0.000000 0.000000 0.000000 0.000000 0.000000 0.000000 -7.258706 -5.150877 -11.551381 98.478963 32.667332 55.328089 -124.740486 50.434862 0.000000 0.000000 0.000000 0.000000 0.000000 0.000000 0.000000 0.000000 0.000000 0.000000 0.000000 0.000000 0.000000 
1.535369 14.081731 1.125034 -4.149044 -28.076469 -7.787599 11.156410 28.955271 -5.308618 -25.933066 -18.752645 -22.203764 18.604081 6.186116 42.715533 -1.822336 -3.072420 -24.683992 0.000000 0.000000 0.000000 -17.209903 -22.737652 0.097389 19.140669 5.291827 -0.776795 14.843935 -32.067801 47.909893 13.731103 -9.805064 -40.049505 0.000000 0.000000 0.000000 8.466070 0.196004 8.535152 0.980300 2.156224 -4.055751 0.365888 -0.258124 -10.657189 -1.918770 1.308982 1.038510 0.000000 0.000000 0.000000 0.000000 0.000000 0.000000 9.082591 -5.267589 0.627587 -42.205644 -19.372379 -20.558913 -114.889198 -80.474363 -180.000000 0.000000 0.000000 0.000000 0.000000 0.000000 0.000000 0.000000 0.000000 0.000000 0.000000 0.000000 0.000000 -7.161904 -5.172737 -11.453491 98.563814 32.814451 55.430193 -124.662648 50.500207 0.000000 0.000000 0.000000 0.000000 0.000000 0.000000 0.000000 0.000000 0.000000 0.000000 0.000000 0.000000 0.000000 
1.546185 14.050911 1.191617 -4.278336 -28.121469 -7.794023 10.958819 28.981427 -5.384553 -26.048562 -18.983458 -22.305162 19.541818 5.575037 42.793547 -1.720479 -3.585922 -24.947163 0.000000 0.000000 0.000000 -17.288409 -22.720753 0.277737 19.057714 5.492347 -0.810779 14.886460 -32.107427 48.225366 13.910050 -9.762317 -40.220833 0.000000 0.000000 0.000000 8.628741 0.157560 8.497320 1.001198 2.122801 -4.055898 0.526913 -0.311966 -10.666544 -1.903290 1.299407 0.991417 0.000000 0.000000 0.000000 0.000000 0.000000 0.000000 9.123975 -5.306324 0.573650 -41.989070 -19.105854 -20.962514 -115.318233 -80.137404 -180.000000 0.000000 0.000000 0.000000 0.000000 0.000000 0.000000 0.000000 0.000000 0.000000 0.000000 0.000000 0.000000 -7.063637 -5.192715 -11.355281 98.648604 32.963456 55.532916 -124.584007 50.565667 0.000000 0.000000 0.000000 0.000000 0.000000 0.000000 0.000000 0.000000 0.000000 0.000000 0.000000 0.000000 0.000000 
1.557000 14.020091 1.258200 -4.407334 -28.171833 -7.797052 10.753019 28.994891 -5.458424 -26.139743 -19.208271 -22.416610 20.468831 4.979822 42.853722 -1.615179 -4.079826 -25.194637 0.000000 0.000000 0.000000 -17.362791 -22.699796 0.454906 18.972638 5.693266 -0.847544 14.928456 -32.146006 48.539222 14.089551 -9.721522 -40.386289 0.000000 0.000000 0.000000 8.791697 0.121301 8.455825 1.021608 2.090730 -4.056102 0.687907 -0.365750 -10.672839 -1.886562 1.289504 0.944666 0.000000 0.000000 0.000000 0.000000 0.000000 0.000000 9.162997 -5.347304 0.520389 -41.767627 -18.835413 -21.362972 -115.740289 -79.807995 -180.000000 0.000000 0.000000 0.000000 0.000000 0.000000 0.000000 0.000000 0.000000 0.000000 0.000000 0.000000 0.000000 -6.963917 -5.210862 -11.256710 98.733332 33.114350 55.636252 -124.504573 50.631237 0.000000 0.000000 0.000000 0.000000 0.000000 0.000000 0.000000 0.000000 0.000000 0.000000 0.000000 0.000000 0.000000 
1.567875 13.991806 1.324837 -4.525992 -28.231558 -7.795318 10.568976 29.010115 -5.534015 -26.238127 -19.398127 -22.492254 21.341496 4.426432 42.871587 -1.508393 -4.556874 -25.482986 0.000000 0.000000 0.000000 -17.434051 -22.674066 0.627356 18.877624 5.869718 -0.878891 14.970304 -32.170096 48.811713 14.240975 -9.669161 -40.530453 0.000000 0.000000 0.000000 8.938085 0.085845 8.419987 1.040249 2.060353 -4.056087 0.833256 -0.415509 -10.682758 -1.873363 1.279458 0.902736 0.000000 0.000000 0.000000 0.000000 0.000000 0.000000 9.198977 -5.384221 0.467487 -41.554362 -18.574770 -21.741290 -116.118523 -79.499886 -180.000000 0.000000 0.000000 0.000000 0.000000 0.000000 0.000000 0.000000 0.000000 0.000000 0.000000 0.000000 0.000000 -6.872639 -5.224376 -11.168890 98.810852 33.250623 55.730673 -124.420553 50.699081 0.000000 0.000000 0.000000 0.000000 0.000000 0.000000 0.000000 0.000000 0.000000 0.000000 0.000000 0.000000 0.000000 
1.578824 13.966726 1.391542 -4.631657 -28.300531 -7.788954 10.415886 29.033809 -5.612647 -26.357335 -19.546875 -22.518339 22.152064 3.919152 42.843340 -1.400821 -5.020066 -25.829593 0.000000 0.000000 0.000000 -17.502864 -22.644120 0.795575 18.770477 6.015172 -0.902951 15.011526 -32.176452 49.032758 14.356049 -9.601596 -40.649625 0.000000 0.000000 0.000000 9.063330 0.050228 8.392986 1.056937 2.031400 -4.055751 0.958826 -0.460123 -10.698873 -1.865226 1.269388 0.866678 0.000000 0.000000 0.000000 0.000000 0.000000 0.000000 9.232198 -5.414837 0.414789 -41.353742 -18.328040 -22.093800 -116.446895 -79.214084 -180.000000 0.000000 0.000000 0.000000 0.000000 0.000000 0.000000 0.000000 0.000000 0.000000 0.000000 0.000000 0.000000 -6.792722 -5.232855 -11.094935 98.879383 33.367411 55.813293 -124.331115 50.770060 0.000000 0.000000 0.000000 0.000000 0.000000 0.000000 0.000000 0.000000 0.000000 0.000000 0.000000 0.000000 0.000000 
1.589773 13.941646 1.458248 -4.736770 -28.373139 -7.779898 10.257006 29.048734 -5.689629 -26.459569 -19.691958 -22.552581 22.956634 3.424990 42.802670 -1.291969 -5.466580 -26.164854 0.000000 0.000000 0.000000 -17.568363 -22.611275 0.961687 18.661007 6.161012 -0.930143 15.051409 -32.182195 49.252730 14.470754 -9.535930 -40.763515 0.000000 0.000000 0.000000 9.188486 0.016075 8.363267 1.073297 2.003331 -4.055450 1.084369 -0.504637 -10.713014 -1.856189 1.259084 0.830813 0.000000 0.000000 0.000000 0.000000 0.000000 0.000000 9.263689 -5.446873 0.362601 -41.149804 -18.078215 -22.444867 -116.773046 -78.932258 -180.000000 0.000000 0.000000 0.000000 0.000000 0.000000 0.000000 0.000000 0.000000 0.000000 0.000000 0.000000 0.000000 -6.711790 -5.240055 -11.020789 98.948003 33.485414 55.896011 -124.241141 50.841541 0.000000 0.000000 0.000000 0.000000 0.000000 0.000000 0.000000 0.000000 0.000000 0.000000 0.000000 0.000000 0.000000 
1.600723 13.916567 1.524953 -4.841236 -28.449345 -7.768154 10.092567 29.054868 -5.764927 -26.544833 -19.833525 -22.595129 23.754943 2.944203 42.750285 -1.182628 -5.896317 -26.489049 0.000000 0.000000 0.000000 -17.630635 -22.575586 1.125638 18.549203 6.307211 -0.960453 15.089945 -32.187324 49.471602 14.585111 -9.472177 -40.872143 0.000000 0.000000 0.000000 9.313476 -0.016574 8.330805 1.089311 1.976157 -4.055188 1.209889 -0.549069 -10.725159 -1.846240 1.248547 0.795154 0.000000 0.000000 0.000000 0.000000 0.000000 0.000000 9.293445 -5.480325 0.310911 -40.942593 -17.825351 -22.794397 -117.096792 -78.654476 -180.000000 0.000000 0.000000 0.000000 0.000000 0.000000 0.000000 0.000000 0.000000 0.000000 0.000000 0.000000 0.000000 -6.629847 -5.246002 -10.946433 99.016703 33.604641 55.978817 -124.150638 50.913520 0.000000 0.000000 0.000000 0.000000 0.000000 0.000000 0.000000 0.000000 0.000000 0.000000 0.000000 0.000000 0.000000 
1.611774 13.893573 1.591262 -4.937740 -28.534524 -7.750420 9.944080 29.057698 -5.838258 -26.623082 -19.947484 -22.619633 24.497987 2.509705 42.675551 -1.077227 -6.300533 -26.841528 0.000000 0.000000 0.000000 -17.691826 -22.537873 1.281923 18.433369 6.429211 -0.984541 15.119753 -32.183973 49.651839 14.678364 -9.408669 -40.965564 0.000000 0.000000 0.000000 9.424551 -0.047994 8.302447 1.103752 1.950837 -4.055015 1.322637 -0.589513 -10.739478 -1.838867 1.238304 0.764013 0.000000 0.000000 0.000000 0.000000 0.000000 0.000000 9.321328 -5.508510 0.259257 -40.743713 -17.580617 -23.124958 -117.383082 -78.394560 -180.000000 0.000000 0.000000 0.000000 0.000000 0.000000 0.000000 0.000000 0.000000 0.000000 0.000000 0.000000 0.000000 -6.555868 -5.248502 -10.878696 99.079897 33.709949 56.051849 -124.066556 50.987147 0.000000 0.000000 0.000000 0.000000 0.000000 0.000000 0.000000 0.000000 0.000000 0.000000 0.000000 0.000000 0.000000 
